<?xml version="1.0" encoding="utf-8"?>
<!-- Generator: Adobe Illustrator 13.0.0, SVG Export Plug-In . SVG Version: 6.00 Build 14948)  -->
<!DOCTYPE svg PUBLIC "-//W3C//DTD SVG 1.1//EN" "http://www.w3.org/Graphics/SVG/1.1/DTD/svg11.dtd">
<svg version="1.1" id="レイヤー_1" xmlns="http://www.w3.org/2000/svg" xmlns:xlink="http://www.w3.org/1999/xlink" x="0px"
	 y="0px" width="203.822px" height="67.436px" viewBox="193.219 371.001 203.822 67.436"
	 enable-background="new 193.219 371.001 203.822 67.436" xml:space="preserve">
<g>
	<g>
		<g>
			<path fill="#1E3A90" d="M309.066,426.759H292.77v0.17l0.418,0.654h12.159c0.021,0.324,0.021,0.717,0.009,1.082
				c-0.046,1.252-0.41,2.559-1.214,3.904c-0.821,1.383-1.871,2.484-3.106,3.307c-1.457,0.99-3.123,1.738-4.958,2.242l0.074,0.318
				c3.557-0.205,6.495-1.084,8.812-2.617c1.195-0.783,2.168-1.811,2.914-3.062c0.785-1.307,1.094-2.537,1.178-3.998
				C309.102,427.91,309.051,427.224,309.066,426.759z"/>
			<g>
				<polygon fill="#1E3A90" points="307.631,422.521 293.834,422.521 293.834,422.708 294.388,423.285 308.25,423.285
					308.25,423.085 				"/>
			</g>
		</g>
		<g>
			<path fill="#1E3A90" d="M323.854,421.521c-0.225,0.542-1.25,2.26-1.819,2.979c-0.597,0.785-1.342,1.553-2.203,2.316
				c-2.371,2.092-5.043,3.568-7.996,4.465l0.111,0.373c1.01-0.072,2.225-0.297,3.684-0.672c1.529-0.371,2.836-0.785,3.92-1.232
				v8.559h3.31v-10.48c0.991-0.73,1.903-1.699,2.766-2.938c0.797-1.148,1.34-2.27,1.648-3.369H323.854z"/>
		</g>
		<g>
			<path fill="#1E3A90" d="M287.513,421.55c-0.226,0.543-1.251,2.262-1.818,2.979c-0.599,0.785-1.347,1.551-2.205,2.316
				c-2.375,2.094-5.044,3.57-7.997,4.467l0.112,0.373c1.009-0.074,2.225-0.299,3.681-0.672c1.531-0.375,2.84-0.787,3.923-1.234
				v8.559h3.306v-10.479c0.992-0.73,1.908-1.703,2.766-2.936c0.798-1.152,1.341-2.27,1.65-3.373H287.513z"/>
		</g>
		<path fill="#1E3A90" d="M346.506,422.912h-15.947v0.211l0.552,0.498h11.782c0.013,0.275,0.013,0.588-0.002,0.99
			c-0.024,0.822-0.225,1.906-0.635,3.252c-0.521,1.588-1.121,2.877-1.832,3.887c-1.869,2.615-4.596,4.615-8.164,5.959l0.074,0.299
			c4.186-0.598,7.4-1.869,9.623-3.848c1.289-1.121,2.354-2.523,3.195-4.166c0.877-1.721,1.274-3.389,1.323-5.084
			C346.5,424.166,346.506,423.484,346.506,422.912z"/>
		<g>
			<g>
				<path fill="#1E3A90" d="M258.63,424.146c0.045,1.83-0.113,3.492-0.337,4.947c-0.561,3.627-1.812,6.598-3.792,8.914l0.187,0.244
					c1.68-0.936,3.12-2.168,4.316-3.738c1.176-1.566,1.999-3.342,2.465-5.287c0.467-2.072,0.71-4.443,0.71-7.1l-3.58,0.506
					C258.604,422.976,258.611,423.47,258.63,424.146z"/>
			</g>
			<g>
				<path fill="#1E3A90" d="M272.974,432.214c-0.521-1.928-1.392-3.678-2.612-5.213c-1.238-1.535-2.708-2.727-4.415-3.611
					l-0.182,0.248c2.046,2.256,3.381,5.191,4.043,8.801c0.266,1.445,0.471,3.105,0.478,4.938c0.002,0.381,0.004,0.695,0.007,0.963
					h3.554C273.73,436.07,273.436,434.023,272.974,432.214z"/>
			</g>
		</g>
	</g>
	<g>
		<path fill="#1E3A90" d="M193.219,395.72c0,0,6.646-7.75,18.291-6.562c14.201,1.447,23.901,5.584,39.055-1.625
			c0,0-7.326,10.741-22.412,10.035C212.311,396.822,210.193,391.123,193.219,395.72z"/>
		<g>
			<path fill="#1E3A90" d="M280.686,408.997c5.427,0,13.23-0.438,17.479-0.872c-0.126,0.872-0.312,1.807-0.312,2.679
				c0,0.876,0.187,1.812,0.312,2.688h-26.838v-42.488c1.56,0.125,3.119,0.312,4.68,0.312c1.559,0,3.118-0.187,4.679-0.312V408.997
				L280.686,408.997z"/>
			<path fill="#1E3A90" d="M310.041,371.001c1.559,0.125,3.119,0.312,4.68,0.312c1.562,0,3.119-0.187,4.681-0.312V413.8
				c-1.562-0.124-3.119-0.311-4.681-0.311c-1.561,0-3.121,0.187-4.68,0.311V371.001z"/>
			<path fill="#1E3A90" d="M340.633,413.8c-1.561-0.124-3.119-0.311-4.68-0.311c-1.56,0-3.119,0.187-4.68,0.311v-42.799h26.946
				c-0.125,0.873-0.312,1.809-0.312,2.684c0,0.873,0.188,1.809,0.312,2.682c-3.803-0.438-11.037-0.873-17.588-0.873v13.413h9.789
				c2.435,0,4.932-0.251,7.549-0.562c-0.123,0.872-0.311,1.809-0.311,2.684c0,0.873,0.188,1.81,0.311,2.682
				c-2.617-0.248-5.114-0.562-7.608-0.562h-9.729L340.633,413.8L340.633,413.8z"/>
			<path fill="#1E3A90" d="M397.041,371.001c-0.125,0.873-0.311,1.809-0.311,2.684c0,0.873,0.186,1.809,0.311,2.682
				c-3.803-0.498-11.221-0.998-17.584-0.873v13.413h9.664c2.805,0,5.365-0.251,7.674-0.562c-0.123,0.872-0.313,1.809-0.313,2.684
				c0,0.873,0.19,1.81,0.313,2.682c-2.309-0.312-4.869-0.562-7.674-0.562h-9.664v15.849c6.363-0.063,13.781-0.374,17.584-0.872
				c-0.125,0.872-0.312,1.807-0.312,2.679c0,0.876,0.187,1.812,0.312,2.688h-26.943v-42.488h26.943V371.001z"/>
			<g>
				<polygon fill="#1E3A90" points="235.318,414.246 236.525,414.14 238.379,414.027 240.006,414.126 241.443,414.244
					241.438,413.863 241.439,371.355 240.006,371.47 238.379,371.572 236.525,371.457 235.314,371.353 235.318,371.734 				"/>
				<path fill="#1E3A90" d="M210.09,389.07c0-0.653,0-17.715,0-17.715l-1.434,0.115l-1.627,0.103l-1.854-0.115l-1.211-0.104
					l0.004,0.381v42.512l1.207-0.105l1.854-0.113l1.627,0.1l1.44,0.117l-0.006-0.381c0,0,0-20.188,0-20.848"/>
			</g>
			<polygon fill="#1E3A90" points="253.322,371.734 253.322,414.246 254.531,414.14 256.383,414.027 258.009,414.126
				259.452,414.244 259.445,413.863 259.445,371.355 258.009,371.47 256.383,371.572 254.531,371.457 253.318,371.353 			"/>
		</g>
	</g>
</g>
</svg>
